<mxfile host="app.diagrams.net" modified="2023-11-28T01:47:07.750Z" agent="Mozilla/5.0 (Windows NT 10.0; Win64; x64) AppleWebKit/537.36 (KHTML, like Gecko) Chrome/119.0.0.0 Safari/537.36" etag="eGTVLXqZHVrBiGZ2UyeW" version="22.1.4" type="github">
  <diagram name="Page-1" id="FeugKCeigAZtgT3a6GA5">
    <mxGraphModel dx="1221" dy="769" grid="1" gridSize="10" guides="1" tooltips="1" connect="1" arrows="1" fold="1" page="1" pageScale="1" pageWidth="827" pageHeight="1169" math="0" shadow="0">
      <root>
        <mxCell id="0" />
        <mxCell id="1" parent="0" />
        <mxCell id="jlRU48WRJ79dh82zvwO2-1" value="" style="sketch=0;pointerEvents=1;shadow=0;dashed=0;html=1;strokeColor=none;labelPosition=center;verticalLabelPosition=bottom;verticalAlign=top;align=center;fillColor=#515151;shape=mxgraph.mscae.system_center.admin_console" parent="1" vertex="1">
          <mxGeometry x="420" y="121" width="50" height="36" as="geometry" />
        </mxCell>
        <mxCell id="jlRU48WRJ79dh82zvwO2-2" value="" style="points=[[0.35,0,0],[0.98,0.51,0],[1,0.71,0],[0.67,1,0],[0,0.795,0],[0,0.65,0]];verticalLabelPosition=bottom;sketch=0;html=1;verticalAlign=top;aspect=fixed;align=center;pointerEvents=1;shape=mxgraph.cisco19.user;fillColor=#005073;strokeColor=none;" parent="1" vertex="1">
          <mxGeometry x="195" y="292" width="50" height="50" as="geometry" />
        </mxCell>
        <mxCell id="jlRU48WRJ79dh82zvwO2-3" value="&lt;font face=&quot;Times New Roman&quot; style=&quot;font-size: 18px;&quot;&gt;User1&lt;/font&gt;" style="text;html=1;strokeColor=none;fillColor=none;align=center;verticalAlign=middle;whiteSpace=wrap;rounded=0;" parent="1" vertex="1">
          <mxGeometry x="190" y="345" width="60" height="27" as="geometry" />
        </mxCell>
        <mxCell id="jlRU48WRJ79dh82zvwO2-4" value="&lt;font style=&quot;font-size: 18px;&quot; face=&quot;Times New Roman&quot;&gt;Administrator&lt;/font&gt;" style="text;html=1;strokeColor=none;fillColor=none;align=center;verticalAlign=middle;whiteSpace=wrap;rounded=0;" parent="1" vertex="1">
          <mxGeometry x="392.5" y="160" width="105" height="30" as="geometry" />
        </mxCell>
        <mxCell id="jlRU48WRJ79dh82zvwO2-5" value="" style="sketch=0;outlineConnect=0;fontColor=#232F3E;gradientColor=none;fillColor=#2E27AD;strokeColor=none;dashed=0;verticalLabelPosition=bottom;verticalAlign=top;align=center;html=1;fontSize=12;fontStyle=0;aspect=fixed;pointerEvents=1;shape=mxgraph.aws4.rds_multi_az_db_cluster;" parent="1" vertex="1">
          <mxGeometry x="414" y="450" width="78" height="78" as="geometry" />
        </mxCell>
        <mxCell id="jlRU48WRJ79dh82zvwO2-6" value="&lt;font face=&quot;Times New Roman&quot; style=&quot;font-size: 18px;&quot;&gt;IPFS cluster&lt;/font&gt;" style="text;html=1;strokeColor=none;fillColor=none;align=center;verticalAlign=middle;whiteSpace=wrap;rounded=0;" parent="1" vertex="1">
          <mxGeometry x="344" y="469" width="70" height="40" as="geometry" />
        </mxCell>
        <mxCell id="jlRU48WRJ79dh82zvwO2-27" value="" style="sketch=0;outlineConnect=0;fontColor=#232F3E;gradientColor=none;fillColor=#2E27AD;strokeColor=none;dashed=0;verticalLabelPosition=bottom;verticalAlign=top;align=center;html=1;fontSize=12;fontStyle=0;aspect=fixed;pointerEvents=1;shape=mxgraph.aws4.cluster;" parent="1" vertex="1">
          <mxGeometry x="373" y="251" width="142" height="142" as="geometry" />
        </mxCell>
        <mxCell id="jlRU48WRJ79dh82zvwO2-28" value="" style="points=[[0.35,0,0],[0.98,0.51,0],[1,0.71,0],[0.67,1,0],[0,0.795,0],[0,0.65,0]];verticalLabelPosition=bottom;sketch=0;html=1;verticalAlign=top;aspect=fixed;align=center;pointerEvents=1;shape=mxgraph.cisco19.user;fillColor=#005073;strokeColor=none;" parent="1" vertex="1">
          <mxGeometry x="645" y="292" width="50" height="50" as="geometry" />
        </mxCell>
        <mxCell id="jlRU48WRJ79dh82zvwO2-35" value="&lt;font style=&quot;font-size: 18px;&quot; face=&quot;Times New Roman&quot;&gt;(1)&lt;/font&gt;" style="text;html=1;strokeColor=none;fillColor=none;align=left;verticalAlign=middle;whiteSpace=wrap;rounded=0;" parent="1" vertex="1">
          <mxGeometry x="449.5" y="200" width="70" height="30" as="geometry" />
        </mxCell>
        <mxCell id="jlRU48WRJ79dh82zvwO2-46" value="&lt;font style=&quot;font-size: 18px;&quot; face=&quot;Times New Roman&quot;&gt;(2)&lt;/font&gt;" style="text;html=1;strokeColor=none;fillColor=none;align=center;verticalAlign=middle;whiteSpace=wrap;rounded=0;" parent="1" vertex="1">
          <mxGeometry x="275" y="287" width="90" height="30" as="geometry" />
        </mxCell>
        <mxCell id="jlRU48WRJ79dh82zvwO2-47" value="" style="endArrow=classic;html=1;rounded=0;" parent="1" edge="1">
          <mxGeometry width="50" height="50" relative="1" as="geometry">
            <mxPoint x="443.5" y="190" as="sourcePoint" />
            <mxPoint x="443.5" y="250" as="targetPoint" />
          </mxGeometry>
        </mxCell>
        <mxCell id="jlRU48WRJ79dh82zvwO2-48" value="" style="endArrow=classic;html=1;rounded=0;" parent="1" edge="1">
          <mxGeometry width="50" height="50" relative="1" as="geometry">
            <mxPoint x="448" y="393" as="sourcePoint" />
            <mxPoint x="448" y="460" as="targetPoint" />
          </mxGeometry>
        </mxCell>
        <mxCell id="jlRU48WRJ79dh82zvwO2-49" value="" style="endArrow=classic;html=1;rounded=0;" parent="1" edge="1">
          <mxGeometry width="50" height="50" relative="1" as="geometry">
            <mxPoint x="458" y="460" as="sourcePoint" />
            <mxPoint x="457.5" y="390" as="targetPoint" />
          </mxGeometry>
        </mxCell>
        <mxCell id="jlRU48WRJ79dh82zvwO2-50" value="&lt;font style=&quot;font-size: 18px;&quot; face=&quot;Times New Roman&quot;&gt;(3)&lt;br&gt;(7)&lt;/font&gt;" style="text;html=1;strokeColor=none;fillColor=none;align=center;verticalAlign=middle;whiteSpace=wrap;rounded=0;" parent="1" vertex="1">
          <mxGeometry x="414" y="400" width="39.5" height="40" as="geometry" />
        </mxCell>
        <mxCell id="jlRU48WRJ79dh82zvwO2-51" value="&lt;font style=&quot;font-size: 18px;&quot; face=&quot;Times New Roman&quot;&gt;(4)&lt;br&gt;(8)&lt;/font&gt;" style="text;html=1;strokeColor=none;fillColor=none;align=center;verticalAlign=middle;whiteSpace=wrap;rounded=0;" parent="1" vertex="1">
          <mxGeometry x="456" y="400" width="34" height="40" as="geometry" />
        </mxCell>
        <mxCell id="jlRU48WRJ79dh82zvwO2-52" value="&lt;font face=&quot;Times New Roman&quot; style=&quot;font-size: 18px;&quot;&gt;Blockchain cluster&lt;/font&gt;" style="text;html=1;strokeColor=none;fillColor=none;align=center;verticalAlign=middle;whiteSpace=wrap;rounded=0;" parent="1" vertex="1">
          <mxGeometry x="339.5" y="250" width="98" height="42" as="geometry" />
        </mxCell>
        <mxCell id="jlRU48WRJ79dh82zvwO2-53" value="&lt;font style=&quot;font-size: 18px;&quot; face=&quot;Times New Roman&quot;&gt;(5)&lt;/font&gt;" style="text;html=1;strokeColor=none;fillColor=none;align=center;verticalAlign=middle;whiteSpace=wrap;rounded=0;" parent="1" vertex="1">
          <mxGeometry x="280" y="324" width="80" height="30" as="geometry" />
        </mxCell>
        <mxCell id="jlRU48WRJ79dh82zvwO2-55" value="&lt;font style=&quot;font-size: 18px;&quot; face=&quot;Times New Roman&quot;&gt;(6)&lt;/font&gt;" style="text;html=1;strokeColor=none;fillColor=none;align=center;verticalAlign=middle;whiteSpace=wrap;rounded=0;" parent="1" vertex="1">
          <mxGeometry x="550" y="287" width="52.5" height="30" as="geometry" />
        </mxCell>
        <mxCell id="jlRU48WRJ79dh82zvwO2-56" value="&lt;font style=&quot;font-size: 18px;&quot; face=&quot;Times New Roman&quot;&gt;(9)&lt;/font&gt;" style="text;html=1;strokeColor=none;fillColor=none;align=center;verticalAlign=middle;whiteSpace=wrap;rounded=0;" parent="1" vertex="1">
          <mxGeometry x="531.25" y="324" width="90" height="30" as="geometry" />
        </mxCell>
        <mxCell id="L3hxmU-64hsJkLJO0i4g-6" value="" style="rounded=0;whiteSpace=wrap;html=1;fillStyle=auto;dashed=1;fillColor=none;" parent="1" vertex="1">
          <mxGeometry x="339.5" y="235" width="200.5" height="300" as="geometry" />
        </mxCell>
        <mxCell id="-qtu0z4UG3iXvXZe008g-1" value="&lt;font face=&quot;Times New Roman&quot; style=&quot;font-size: 18px;&quot;&gt;User2&lt;/font&gt;" style="text;html=1;strokeColor=none;fillColor=none;align=center;verticalAlign=middle;whiteSpace=wrap;rounded=0;" vertex="1" parent="1">
          <mxGeometry x="640" y="345" width="60" height="27" as="geometry" />
        </mxCell>
        <mxCell id="-qtu0z4UG3iXvXZe008g-4" value="" style="endArrow=classic;html=1;rounded=0;" edge="1" parent="1">
          <mxGeometry width="50" height="50" relative="1" as="geometry">
            <mxPoint x="253" y="316.5" as="sourcePoint" />
            <mxPoint x="373" y="316.5" as="targetPoint" />
          </mxGeometry>
        </mxCell>
        <mxCell id="-qtu0z4UG3iXvXZe008g-5" value="" style="endArrow=classic;html=1;rounded=0;" edge="1" parent="1">
          <mxGeometry width="50" height="50" relative="1" as="geometry">
            <mxPoint x="373" y="326.5" as="sourcePoint" />
            <mxPoint x="253" y="326.5" as="targetPoint" />
          </mxGeometry>
        </mxCell>
        <mxCell id="-qtu0z4UG3iXvXZe008g-6" value="" style="endArrow=classic;html=1;rounded=0;" edge="1" parent="1">
          <mxGeometry width="50" height="50" relative="1" as="geometry">
            <mxPoint x="519.5" y="326" as="sourcePoint" />
            <mxPoint x="639.5" y="326" as="targetPoint" />
          </mxGeometry>
        </mxCell>
        <mxCell id="-qtu0z4UG3iXvXZe008g-7" value="" style="endArrow=classic;html=1;rounded=0;" edge="1" parent="1">
          <mxGeometry width="50" height="50" relative="1" as="geometry">
            <mxPoint x="639.5" y="316" as="sourcePoint" />
            <mxPoint x="519.5" y="316" as="targetPoint" />
          </mxGeometry>
        </mxCell>
      </root>
    </mxGraphModel>
  </diagram>
</mxfile>
